<svg width="214" height="16" viewBox="0 0 214 16" fill="none" xmlns="http://www.w3.org/2000/svg">
<path d="M3.56875 7.2H6.64875V11.64C6.64875 12.7733 6.36875 13.6467 5.80875 14.26C5.26208 14.86 4.44875 15.16 3.36875 15.16C2.28875 15.16 1.46875 14.86 0.90875 14.26C0.362083 13.6467 0.08875 12.7733 0.08875 11.64V4.36C0.08875 3.22667 0.362083 2.36 0.90875 1.76C1.46875 1.14667 2.28875 0.84 3.36875 0.84C4.44875 0.84 5.26208 1.14667 5.80875 1.76C6.36875 2.36 6.64875 3.22667 6.64875 4.36V5.72H4.56875V4.22C4.56875 3.71333 4.46208 3.36 4.24875 3.16C4.04875 2.94667 3.77542 2.84 3.42875 2.84C3.08208 2.84 2.80208 2.94667 2.58875 3.16C2.38875 3.36 2.28875 3.71333 2.28875 4.22V11.78C2.28875 12.2867 2.38875 12.64 2.58875 12.84C2.80208 13.04 3.08208 13.14 3.42875 13.14C3.77542 13.14 4.04875 13.04 4.24875 12.84C4.46208 12.64 4.56875 12.2867 4.56875 11.78V9.2H3.56875V7.2ZM10.0817 11.78C10.0817 12.2867 10.1817 12.6467 10.3817 12.86C10.5951 13.06 10.8751 13.16 11.2217 13.16C11.5684 13.16 11.8417 13.06 12.0417 12.86C12.2551 12.6467 12.3617 12.2867 12.3617 11.78V4.22C12.3617 3.71333 12.2551 3.36 12.0417 3.16C11.8417 2.94667 11.5684 2.84 11.2217 2.84C10.8751 2.84 10.5951 2.94667 10.3817 3.16C10.1817 3.36 10.0817 3.71333 10.0817 4.22V11.78ZM7.88172 4.36C7.88172 3.22667 8.16839 2.36 8.74172 1.76C9.31505 1.14667 10.1417 0.84 11.2217 0.84C12.3017 0.84 13.1284 1.14667 13.7017 1.76C14.2751 2.36 14.5617 3.22667 14.5617 4.36V11.64C14.5617 12.7733 14.2751 13.6467 13.7017 14.26C13.1284 14.86 12.3017 15.16 11.2217 15.16C10.1417 15.16 9.31505 14.86 8.74172 14.26C8.16839 13.6467 7.88172 12.7733 7.88172 11.64V4.36ZM22.4169 0.999999C23.5635 0.999999 24.3902 1.26667 24.8969 1.8C25.4169 2.33333 25.6769 3.14 25.6769 4.22V4.72C25.6769 5.44 25.5635 6.03333 25.3369 6.5C25.1102 6.96667 24.7502 7.31333 24.2569 7.54C24.8569 7.76667 25.2769 8.14 25.5169 8.66C25.7702 9.16667 25.8969 9.79333 25.8969 10.54V11.68C25.8969 12.76 25.6169 13.5867 25.0569 14.16C24.4969 14.72 23.6635 15 22.5569 15H19.0969V0.999999H22.4169ZM21.2969 8.7V13H22.5569C22.9302 13 23.2102 12.9 23.3969 12.7C23.5969 12.5 23.6969 12.14 23.6969 11.62V10.4C23.6969 9.74667 23.5835 9.3 23.3569 9.06C23.1435 8.82 22.7835 8.7 22.2769 8.7H21.2969ZM21.2969 3V6.7H22.1569C22.5702 6.7 22.8902 6.59333 23.1169 6.38C23.3569 6.16667 23.4769 5.78 23.4769 5.22V4.44C23.4769 3.93333 23.3835 3.56667 23.1969 3.34C23.0235 3.11333 22.7435 3 22.3569 3H21.2969ZM34.3419 15H32.1219L31.7419 12.46H29.0419L28.6619 15H26.6419L28.8819 0.999999H32.1019L34.3419 15ZM29.3219 10.56H31.4419L30.3819 3.48L29.3219 10.56ZM41.7269 9.78V11.64C41.7269 12.7733 41.4469 13.6467 40.8869 14.26C40.3402 14.86 39.5269 15.16 38.4469 15.16C37.3669 15.16 36.5469 14.86 35.9869 14.26C35.4402 13.6467 35.1669 12.7733 35.1669 11.64V4.36C35.1669 3.22667 35.4402 2.36 35.9869 1.76C36.5469 1.14667 37.3669 0.84 38.4469 0.84C39.5269 0.84 40.3402 1.14667 40.8869 1.76C41.4469 2.36 41.7269 3.22667 41.7269 4.36V5.72H39.6469V4.22C39.6469 3.71333 39.5402 3.36 39.3269 3.16C39.1269 2.94667 38.8535 2.84 38.5069 2.84C38.1602 2.84 37.8802 2.94667 37.6669 3.16C37.4669 3.36 37.3669 3.71333 37.3669 4.22V11.78C37.3669 12.2867 37.4669 12.64 37.6669 12.84C37.8802 13.04 38.1602 13.14 38.5069 13.14C38.8535 13.14 39.1269 13.04 39.3269 12.84C39.5402 12.64 39.6469 12.2867 39.6469 11.78V9.78H41.7269ZM45.9417 9.42L45.2617 10.7V15H43.0617V0.999999H45.2617V7.1L48.1417 0.999999H50.3417L47.2817 7.24L50.3417 15H48.0817L45.9417 9.42ZM61.5684 15H59.3484L58.9684 12.46H56.2684L55.8884 15H53.8684L56.1084 0.999999H59.3284L61.5684 15ZM56.5484 10.56H58.6684L57.6084 3.48L56.5484 10.56ZM64.553 4.86V15H62.573V0.999999H65.333L67.593 9.38V0.999999H69.553V15H67.293L64.553 4.86ZM71.1281 0.999999H74.6081C75.7148 0.999999 76.5348 1.29333 77.0681 1.88C77.6148 2.46667 77.8881 3.32667 77.8881 4.46V11.54C77.8881 12.6733 77.6148 13.5333 77.0681 14.12C76.5348 14.7067 75.7148 15 74.6081 15H71.1281V0.999999ZM73.3281 3V13H74.5681C74.9148 13 75.1881 12.9 75.3881 12.7C75.5881 12.5 75.6881 12.1467 75.6881 11.64V4.36C75.6881 3.85333 75.5881 3.5 75.3881 3.3C75.1881 3.1 74.9148 3 74.5681 3H73.3281ZM81.7577 0.999999H88.5577V3H86.2577V15H84.0577V3H81.7577V0.999999ZM94.1266 15C94.0999 14.9067 94.0732 14.82 94.0466 14.74C94.0199 14.66 93.9932 14.56 93.9666 14.44C93.9532 14.32 93.9399 14.1667 93.9266 13.98C93.9266 13.7933 93.9266 13.56 93.9266 13.28V11.08C93.9266 10.4267 93.8132 9.96667 93.5866 9.7C93.3599 9.43333 92.9932 9.3 92.4866 9.3H91.7266V15H89.5266V0.999999H92.8466C93.9932 0.999999 94.8199 1.26667 95.3266 1.8C95.8466 2.33333 96.1066 3.14 96.1066 4.22V5.32C96.1066 6.76 95.6266 7.70667 94.6666 8.16C95.2266 8.38667 95.6066 8.76 95.8066 9.28C96.0199 9.78667 96.1266 10.4067 96.1266 11.14V13.3C96.1266 13.6467 96.1399 13.9533 96.1666 14.22C96.1932 14.4733 96.2599 14.7333 96.3666 15H94.1266ZM91.7266 3V7.3H92.5866C92.9999 7.3 93.3199 7.19333 93.5466 6.98C93.7866 6.76667 93.9066 6.38 93.9066 5.82V4.44C93.9066 3.93333 93.8132 3.56667 93.6266 3.34C93.4532 3.11333 93.1732 3 92.7866 3H91.7266ZM99.4381 10.36L96.6581 0.999999H98.9581L100.638 7.38L102.318 0.999999H104.418L101.638 10.36V15H99.4381V10.36ZM115.533 15H113.313L112.933 12.46H110.233L109.853 15H107.833L110.073 0.999999H113.293L115.533 15ZM110.513 10.56H112.633L111.573 3.48L110.513 10.56ZM119.663 0.999999H123.143C124.25 0.999999 125.07 1.29333 125.603 1.88C126.15 2.46667 126.423 3.32667 126.423 4.46V11.54C126.423 12.6733 126.15 13.5333 125.603 14.12C125.07 14.7067 124.25 15 123.143 15H119.663V0.999999ZM121.863 3V13H123.103C123.45 13 123.723 12.9 123.923 12.7C124.123 12.5 124.223 12.1467 124.223 11.64V4.36C124.223 3.85333 124.123 3.5 123.923 3.3C123.723 3.1 123.45 3 123.103 3H121.863ZM127.827 0.999999H130.027V15H127.827V0.999999ZM133.836 7.22H136.676V9.22H133.836V15H131.636V0.999999H137.456V3H133.836V7.22ZM140.711 7.22H143.551V9.22H140.711V15H138.511V0.999999H144.331V3H140.711V7.22ZM147.586 6.9H150.606V8.9H147.586V13H151.386V15H145.386V0.999999H151.386V3H147.586V6.9ZM157.349 15C157.323 14.9067 157.296 14.82 157.269 14.74C157.243 14.66 157.216 14.56 157.189 14.44C157.176 14.32 157.163 14.1667 157.149 13.98C157.149 13.7933 157.149 13.56 157.149 13.28V11.08C157.149 10.4267 157.036 9.96667 156.809 9.7C156.583 9.43333 156.216 9.3 155.709 9.3H154.949V15H152.749V0.999999H156.069C157.216 0.999999 158.043 1.26667 158.549 1.8C159.069 2.33333 159.329 3.14 159.329 4.22V5.32C159.329 6.76 158.849 7.70667 157.889 8.16C158.449 8.38667 158.829 8.76 159.029 9.28C159.243 9.78667 159.349 10.4067 159.349 11.14V13.3C159.349 13.6467 159.363 13.9533 159.389 14.22C159.416 14.4733 159.483 14.7333 159.589 15H157.349ZM154.949 3V7.3H155.809C156.223 7.3 156.543 7.19333 156.769 6.98C157.009 6.76667 157.129 6.38 157.129 5.82V4.44C157.129 3.93333 157.036 3.56667 156.849 3.34C156.676 3.11333 156.396 3 156.009 3H154.949ZM162.996 6.9H166.016V8.9H162.996V13H166.796V15H160.796V0.999999H166.796V3H162.996V6.9ZM170.119 4.86V15H168.139V0.999999H170.899L173.159 9.38V0.999999H175.119V15H172.859L170.119 4.86ZM176.055 0.999999H182.855V3H180.555V15H178.355V3H176.055V0.999999ZM186.929 0.999999H189.129V13H192.749V15H186.929V0.999999ZM193.706 0.999999H195.906V15H193.706V0.999999ZM199.475 4.86V15H197.495V0.999999H200.255L202.515 9.38V0.999999H204.475V15H202.215L199.475 4.86ZM208.93 9.42L208.25 10.7V15H206.05V0.999999H208.25V7.1L211.13 0.999999H213.33L210.27 7.24L213.33 15H211.07L208.93 9.42Z" fill="#59C3FB"/>
</svg>
