<svg width="111" height="47" viewBox="0 0 111 47" fill="none" xmlns="http://www.w3.org/2000/svg">
<path d="M9 19L0 23.5L9 28V19Z" fill="#70CB0E"/>
<rect width="102" height="47" transform="translate(9)" fill="#70CB0E"/>
<path d="M35.4375 14.5469V19H33.9375V7.625H38.1328C39.3776 7.625 40.3516 7.94271 41.0547 8.57812C41.763 9.21354 42.1172 10.0547 42.1172 11.1016C42.1172 12.2057 41.7708 13.0573 41.0781 13.6562C40.3906 14.25 39.4036 14.5469 38.1172 14.5469H35.4375ZM35.4375 13.3203H38.1328C38.9349 13.3203 39.5495 13.1328 39.9766 12.7578C40.4036 12.3776 40.6172 11.8307 40.6172 11.1172C40.6172 10.4401 40.4036 9.89844 39.9766 9.49219C39.5495 9.08594 38.9635 8.875 38.2188 8.85938H35.4375V13.3203ZM49.2344 16.0312H44.4688L43.3984 19H41.8516L46.1953 7.625H47.5078L51.8594 19H50.3203L49.2344 16.0312ZM44.9219 14.7969H48.7891L46.8516 9.47656L44.9219 14.7969ZM62.1328 19H60.625L54.8984 10.2344V19H53.3906V7.625H54.8984L60.6406 16.4297V7.625H62.1328V19ZM64.7969 19V7.625H68.0078C68.9974 7.625 69.8724 7.84375 70.6328 8.28125C71.3932 8.71875 71.9792 9.34115 72.3906 10.1484C72.8073 10.9557 73.0182 11.8828 73.0234 12.9297V13.6562C73.0234 14.7292 72.8151 15.6693 72.3984 16.4766C71.987 17.2839 71.3958 17.9036 70.625 18.3359C69.8594 18.7682 68.9661 18.9896 67.9453 19H64.7969ZM66.2969 8.85938V17.7734H67.875C69.0312 17.7734 69.9297 17.4141 70.5703 16.6953C71.2161 15.9766 71.5391 14.9531 71.5391 13.625V12.9609C71.5391 11.6693 71.2344 10.6667 70.625 9.95312C70.0208 9.23438 69.1615 8.86979 68.0469 8.85938H66.2969ZM81.4062 16.0312H76.6406L75.5703 19H74.0234L78.3672 7.625H79.6797L84.0312 19H82.4922L81.4062 16.0312ZM77.0938 14.7969H80.9609L79.0234 9.47656L77.0938 14.7969ZM85.2891 21.2656L84.4688 20.7031C84.9583 20.0208 85.2135 19.3177 85.2344 18.5938V17.2891H86.6484V18.4219C86.6484 18.9479 86.5182 19.474 86.2578 20C86.0026 20.526 85.6797 20.9479 85.2891 21.2656Z" fill="black"/>
<path d="M49.3594 35.3906C49.2188 36.5938 48.7734 37.5234 48.0234 38.1797C47.2786 38.8307 46.2865 39.1562 45.0469 39.1562C43.7031 39.1562 42.625 38.6745 41.8125 37.7109C41.0052 36.7474 40.6016 35.4583 40.6016 33.8438V32.75C40.6016 31.6927 40.7891 30.763 41.1641 29.9609C41.5443 29.1589 42.0807 28.5443 42.7734 28.1172C43.4661 27.6849 44.2682 27.4688 45.1797 27.4688C46.388 27.4688 47.3568 27.8073 48.0859 28.4844C48.8151 29.1562 49.2396 30.0885 49.3594 31.2812H47.8516C47.7214 30.375 47.4375 29.7188 47 29.3125C46.5677 28.9062 45.9609 28.7031 45.1797 28.7031C44.2214 28.7031 43.4688 29.0573 42.9219 29.7656C42.3802 30.474 42.1094 31.4818 42.1094 32.7891V33.8906C42.1094 35.125 42.3672 36.1068 42.8828 36.8359C43.3984 37.5651 44.1198 37.9297 45.0469 37.9297C45.8802 37.9297 46.5182 37.7422 46.9609 37.3672C47.4089 36.987 47.7057 36.3281 47.8516 35.3906H49.3594ZM52.6328 31.5703C53.2734 30.7839 54.1068 30.3906 55.1328 30.3906C56.9193 30.3906 57.8203 31.3984 57.8359 33.4141V39H56.3906V33.4062C56.3854 32.7969 56.2448 32.3464 55.9688 32.0547C55.6979 31.763 55.2734 31.6172 54.6953 31.6172C54.2266 31.6172 53.8151 31.7422 53.4609 31.9922C53.1068 32.2422 52.8307 32.5703 52.6328 32.9766V39H51.1875V27H52.6328V31.5703ZM61.5703 39H60.125V30.5469H61.5703V39ZM60.0078 28.3047C60.0078 28.0703 60.0781 27.8724 60.2188 27.7109C60.3646 27.5495 60.5781 27.4688 60.8594 27.4688C61.1406 27.4688 61.3542 27.5495 61.5 27.7109C61.6458 27.8724 61.7188 28.0703 61.7188 28.3047C61.7188 28.5391 61.6458 28.7344 61.5 28.8906C61.3542 29.0469 61.1406 29.125 60.8594 29.125C60.5781 29.125 60.3646 29.0469 60.2188 28.8906C60.0781 28.7344 60.0078 28.5391 60.0078 28.3047ZM65.2578 30.5469L65.3047 31.6094C65.9505 30.7969 66.7943 30.3906 67.8359 30.3906C69.6224 30.3906 70.5234 31.3984 70.5391 33.4141V39H69.0938V33.4062C69.0885 32.7969 68.9479 32.3464 68.6719 32.0547C68.401 31.763 67.9766 31.6172 67.3984 31.6172C66.9297 31.6172 66.5182 31.7422 66.1641 31.9922C65.8099 32.2422 65.5339 32.5703 65.3359 32.9766V39H63.8906V30.5469H65.2578ZM77.9375 39C77.8542 38.8333 77.7865 38.5365 77.7344 38.1094C77.0625 38.8073 76.2604 39.1562 75.3281 39.1562C74.4948 39.1562 73.8099 38.9219 73.2734 38.4531C72.7422 37.9792 72.4766 37.3802 72.4766 36.6562C72.4766 35.776 72.8099 35.0938 73.4766 34.6094C74.1484 34.1198 75.0911 33.875 76.3047 33.875H77.7109V33.2109C77.7109 32.7057 77.5599 32.3047 77.2578 32.0078C76.9557 31.7057 76.5104 31.5547 75.9219 31.5547C75.4062 31.5547 74.974 31.6849 74.625 31.9453C74.276 32.2057 74.1016 32.5208 74.1016 32.8906H72.6484C72.6484 32.4688 72.7969 32.0625 73.0938 31.6719C73.3958 31.276 73.8021 30.9635 74.3125 30.7344C74.8281 30.5052 75.3932 30.3906 76.0078 30.3906C76.9818 30.3906 77.7448 30.6354 78.2969 31.125C78.849 31.6094 79.1354 32.2786 79.1562 33.1328V37.0234C79.1562 37.7995 79.2552 38.4167 79.4531 38.875V39H77.9375ZM75.5391 37.8984C75.9922 37.8984 76.4219 37.7812 76.8281 37.5469C77.2344 37.3125 77.5286 37.0078 77.7109 36.6328V34.8984H76.5781C74.8073 34.8984 73.9219 35.4167 73.9219 36.4531C73.9219 36.9062 74.0729 37.2604 74.375 37.5156C74.6771 37.7708 75.0651 37.8984 75.5391 37.8984Z" fill="black"/>
</svg>
