<svg width="41" height="40" viewBox="0 0 41 40" fill="none" xmlns="http://www.w3.org/2000/svg">
<circle cx="20.3545" cy="20" r="20" fill="black"/>
<path d="M31.3248 12.6314C30.787 12.7797 30.361 12.7563 30.361 12.7563L30.3792 12.6548C30.8806 12.2543 32.1458 11.0214 32.312 10.444C32.3848 10.1943 32.299 10.1085 32.299 10.1007L30.6831 10.7873L29.3322 11.3986C28.3995 10.4102 26.9863 9.78076 25.4093 9.78076C22.601 9.78076 20.3226 11.7731 20.3226 14.231C20.3226 14.681 20.3901 15.5003 20.5304 15.9112C20.5304 16.0413 20.5356 15.7812 20.5304 15.9112C18.7223 15.8618 16.4023 15.1179 14.337 14.0697C10.2634 12.0046 10.0088 10.5741 10.0088 10.5741C9.36972 11.2529 9.03978 13.5053 9.68667 15.2714C10.1023 16.4028 11.5286 17.4172 11.5286 17.4172C11.5286 17.4172 10.8895 17.4276 10.2218 17.2039C9.55417 16.9776 9.29957 16.7539 9.29957 16.7539C8.90209 17.7241 9.69965 19.4563 11.0792 20.6996C11.8819 21.4253 13.3497 21.8804 13.3497 21.8804L11.0584 21.9455C10.9285 24.1719 15.7294 25.4984 15.7294 25.4984C14.3214 26.583 12.6899 27.241 10.9389 27.241C10.0322 27.241 9.15409 27.1058 8.32275 26.8561C10.6349 28.7626 13.6069 30.0813 16.8388 29.9122C25.4119 29.4596 30.2519 22.0833 30.4831 14.837L30.4935 14.8526C30.4935 14.8526 30.8962 14.6524 31.7535 13.7914C32.6108 12.9305 33.146 11.9266 33.146 11.9266C33.146 11.9266 31.8626 12.4832 31.3248 12.6314Z" fill="white"/>
<path d="M32.2988 10.1005C32.3042 10.2403 32.2988 10.1139 32.2988 10.1005V10.1005Z" fill="white"/>
</svg>
